<svg width="785" height="785" viewBox="0 0 785 785" fill="none" xmlns="http://www.w3.org/2000/svg">
<ellipse cx="392" cy="395" rx="387" ry="383" fill="white"/>
<ellipse cx="320.691" cy="380.008" rx="3.46595" ry="2.80902" fill="white"/>
<ellipse cx="444.276" cy="378.982" rx="3.46595" ry="2.80902" fill="white"/>
<path d="M392.5 0C175.644 0 0 175.644 0 392.5C0 566.181 112.353 712.878 268.372 764.884C287.997 768.319 295.356 756.544 295.356 746.241C295.356 736.919 294.866 706.009 294.866 673.138C196.25 691.291 170.737 649.097 162.887 627.019C158.472 615.734 139.337 580.9 122.656 571.578C108.919 564.219 89.2937 546.066 122.166 545.575C153.075 545.084 175.153 574.031 182.512 585.806C217.837 645.172 274.259 628.491 296.828 618.188C300.262 592.675 310.566 575.503 321.85 565.691C234.519 555.878 143.262 522.025 143.262 371.894C143.262 329.209 158.472 293.884 183.494 266.409C179.569 256.597 165.831 216.366 187.419 162.397C187.419 162.397 220.291 152.094 295.356 202.628C326.756 193.797 360.119 189.381 393.481 189.381C426.844 189.381 460.206 193.797 491.606 202.628C566.672 151.603 599.544 162.397 599.544 162.397C621.131 216.366 607.394 256.597 603.469 266.409C628.491 293.884 643.7 328.719 643.7 371.894C643.7 522.516 551.953 555.878 464.622 565.691C478.85 577.956 491.116 601.506 491.116 638.303C491.116 690.8 490.625 732.994 490.625 746.241C490.625 756.544 497.984 768.809 517.609 764.884C595.532 738.586 663.244 688.511 711.211 621.708C759.179 554.905 784.986 474.74 785 392.5C785 175.644 609.356 0 392.5 0Z" fill="black"/>
<path d="M444.629 385.713C444.629 398.061 454.639 408.071 466.987 408.071C479.335 408.071 487.311 398.061 487.311 385.713C487.311 373.365 479.335 363.355 466.987 363.355C454.639 363.355 444.629 373.365 444.629 385.713Z" fill="black"/>
<path d="M338.565 385.713C338.565 398.061 328.555 408.071 316.207 408.071C303.859 408.071 295.884 398.061 295.884 385.713C295.884 373.365 303.859 363.355 316.207 363.355C328.555 363.355 338.565 373.365 338.565 385.713Z" fill="black"/>
<path d="M329.753 540.735C329.753 536.973 333.752 534.558 337.082 536.31L392.442 565.442L447.802 536.31C451.132 534.558 455.13 536.973 455.13 540.735V599.574C455.13 603.337 451.131 605.751 447.802 603.999L392.442 574.867L337.082 603.999C333.752 605.751 329.753 603.337 329.753 599.574V540.735Z" fill="#FF92C5"/>
<path d="M366.074 426.797C369.211 426.797 372.303 426.686 375.363 425.892C379.519 424.813 385.696 423.172 388.774 419.889C389.483 419.132 390.719 417.788 390.918 416.697C391.208 415.099 391.658 416.33 392.228 417.364C395.223 422.803 403.123 425.211 408.901 426.13C412.227 426.659 415.6 426.428 418.81 425.511" stroke="black" stroke-width="5" stroke-linecap="round"/>
<ellipse cx="497.172" cy="415.67" rx="23.6523" ry="14.3347" fill="#FFCCE4"/>
<ellipse cx="284.922" cy="415.67" rx="23.6523" ry="14.3347" fill="#FFCCE4"/>
<path d="M545.071 403.199H607.897" stroke="black" stroke-width="8" stroke-linecap="round"/>
<path d="M545.071 403.199H607.897" stroke="black" stroke-width="8" stroke-linecap="round"/>
<path d="M545.19 433.458L607.778 438.934" stroke="black" stroke-width="8" stroke-linecap="round"/>
<path d="M239.814 402.196H176.987" stroke="black" stroke-width="8" stroke-linecap="round"/>
<path d="M239.694 433.458L177.106 438.934" stroke="black" stroke-width="8" stroke-linecap="round"/>
</svg>
